<svg id="Layer_1" data-name="Layer 1" xmlns="http://www.w3.org/2000/svg" viewBox="0 0 255.45 256.56"><defs><style>.cls-1{fill:#fbd00c;}.cls-2{fill:#1e2c5a;stroke-width:3px;}.cls-2,.cls-3{stroke:#fff;stroke-miterlimit:10;}.cls-3{fill:#eb242b;stroke-width:2px;}</style></defs><path class="cls-1" d="M273.25,93.28a35,35,0,0,1,2.29,4.83c54.46,142.62-69.32,176-69.32,176s-148.35,44.67-170-97.61,114.12-152,114.12-152C226.55,19.36,265.52,79.77,273.25,93.28Z" transform="translate(-33.93 -24.23)"/><path class="cls-2" d="M143,253.83a35.49,35.49,0,0,0,36.1,1.81c46.85-24.18,41.7-82.51,41.7-82.51C215.23,46.27,165.19,50,156.88,51.48c-1,.18-2,.32-3.07.44C89,59.3,100,163.81,102.4,182.07a35.48,35.48,0,0,0,1,5C114.81,226.74,130.29,245.25,143,253.83Z" transform="translate(-33.93 -24.23)"/><polygon class="cls-3" points="118.94 139.72 118.94 124.11 173.99 121.32 174.23 134.08 159.31 136.95 143.23 206.69 115.59 213.97 133.63 138.68 118.94 139.72"/><polygon class="cls-3" points="99.66 154.14 108.16 124.51 148.81 126.86 154.96 104.81 117.01 103.73 120.35 87.47 162.73 89.81 168.51 68.31 101.47 64.34 72.2 152.15 99.66 154.14"/></svg>